<svg width="1022" height="180" viewBox="0 0 1022 180" fill="none" xmlns="http://www.w3.org/2000/svg">
<path d="M221.216 136V41.024H241.184V136H221.216ZM292.484 137.024C285.145 137.024 278.617 135.488 272.9 132.416C267.268 129.344 262.788 125.163 259.46 119.872C256.217 114.496 254.596 108.395 254.596 101.568C254.596 94.656 256.217 88.5547 259.46 83.264C262.788 77.888 267.268 73.7067 272.9 70.72C278.617 67.648 285.145 66.112 292.484 66.112C299.737 66.112 306.223 67.648 311.94 70.72C317.657 73.7067 322.137 77.8453 325.38 83.136C328.623 88.4267 330.244 94.5707 330.244 101.568C330.244 108.395 328.623 114.496 325.38 119.872C322.137 125.163 317.657 129.344 311.94 132.416C306.223 135.488 299.737 137.024 292.484 137.024ZM292.484 120.64C295.812 120.64 298.799 119.872 301.444 118.336C304.089 116.8 306.18 114.624 307.716 111.808C309.252 108.907 310.02 105.493 310.02 101.568C310.02 97.5573 309.252 94.144 307.716 91.328C306.18 88.512 304.089 86.336 301.444 84.8C298.799 83.264 295.812 82.496 292.484 82.496C289.156 82.496 286.169 83.264 283.524 84.8C280.879 86.336 278.745 88.512 277.124 91.328C275.588 94.144 274.82 97.5573 274.82 101.568C274.82 105.493 275.588 108.907 277.124 111.808C278.745 114.624 280.879 116.8 283.524 118.336C286.169 119.872 289.156 120.64 292.484 120.64ZM366.759 137.024C360.871 137.024 355.196 136.341 349.735 134.976C344.359 133.525 340.092 131.733 336.935 129.6L343.591 115.264C346.748 117.227 350.46 118.848 354.727 120.128C359.079 121.323 363.346 121.92 367.527 121.92C372.135 121.92 375.378 121.365 377.255 120.256C379.218 119.147 380.199 117.611 380.199 115.648C380.199 114.027 379.431 112.832 377.895 112.064C376.444 111.211 374.482 110.571 372.007 110.144C369.532 109.717 366.802 109.291 363.815 108.864C360.914 108.437 357.97 107.883 354.983 107.2C351.996 106.432 349.266 105.323 346.791 103.872C344.316 102.421 342.311 100.459 340.775 97.984C339.324 95.5093 338.599 92.3093 338.599 88.384C338.599 84.032 339.836 80.192 342.311 76.864C344.871 73.536 348.54 70.9333 353.319 69.056C358.098 67.0933 363.815 66.112 370.471 66.112C375.164 66.112 379.943 66.624 384.807 67.648C389.671 68.672 393.724 70.1653 396.967 72.128L390.311 86.336C386.983 84.3733 383.612 83.0507 380.199 82.368C376.871 81.6 373.628 81.216 370.471 81.216C366.034 81.216 362.791 81.8133 360.743 83.008C358.695 84.2027 357.671 85.7387 357.671 87.616C357.671 89.3227 358.396 90.6027 359.847 91.456C361.383 92.3093 363.388 92.992 365.863 93.504C368.338 94.016 371.026 94.4853 373.927 94.912C376.914 95.2533 379.9 95.808 382.887 96.576C385.874 97.344 388.562 98.4533 390.951 99.904C393.426 101.269 395.431 103.189 396.967 105.664C398.503 108.053 399.271 111.211 399.271 115.136C399.271 119.403 397.991 123.2 395.431 126.528C392.871 129.771 389.159 132.331 384.295 134.208C379.516 136.085 373.671 137.024 366.759 137.024ZM439.751 137.024C431.644 137.024 425.33 134.976 420.807 130.88C416.284 126.699 414.023 120.512 414.023 112.32V51.904H433.991V112.064C433.991 114.965 434.759 117.227 436.295 118.848C437.831 120.384 439.922 121.152 442.567 121.152C445.724 121.152 448.412 120.299 450.631 118.592L456.007 132.672C453.959 134.123 451.484 135.232 448.583 136C445.767 136.683 442.823 137.024 439.751 137.024ZM403.399 84.032V68.672H451.143V84.032H403.399ZM533.034 137.536C526.463 137.536 520.618 136.469 515.498 134.336C510.378 132.203 506.325 129.301 503.338 125.632C500.351 121.963 498.858 117.739 498.858 112.96C498.858 108.523 499.839 104.555 501.802 101.056C503.765 97.472 506.879 94.144 511.146 91.072C515.413 87.9147 520.831 84.8427 527.402 81.856C532.181 79.6373 535.935 77.6747 538.666 75.968C541.397 74.2613 543.317 72.64 544.426 71.104C545.535 69.4827 546.09 67.8613 546.09 66.24C546.09 64.0213 545.322 62.2293 543.786 60.864C542.335 59.4987 540.159 58.816 537.258 58.816C534.186 58.816 531.797 59.584 530.09 61.12C528.383 62.656 527.53 64.6187 527.53 67.008C527.53 68.288 527.786 69.568 528.298 70.848C528.81 72.0427 529.791 73.4507 531.242 75.072C532.693 76.608 534.741 78.6133 537.386 81.088L584.618 124.864L573.738 137.536L521.642 89.152C518.655 86.4213 516.266 83.8613 514.474 81.472C512.682 79.0827 511.359 76.736 510.506 74.432C509.738 72.128 509.354 69.7387 509.354 67.264C509.354 62.912 510.506 59.072 512.81 55.744C515.114 52.416 518.357 49.856 522.538 48.064C526.719 46.1867 531.626 45.248 537.258 45.248C542.463 45.248 546.943 46.1013 550.698 47.808C554.538 49.4293 557.525 51.776 559.658 54.848C561.877 57.92 562.986 61.5893 562.986 65.856C562.986 69.6107 562.047 73.0667 560.17 76.224C558.293 79.296 555.349 82.1973 551.338 84.928C547.413 87.6587 542.25 90.432 535.85 93.248C531.498 95.2107 528.042 97.1307 525.482 99.008C523.007 100.8 521.215 102.635 520.106 104.512C518.997 106.389 518.442 108.48 518.442 110.784C518.442 112.917 519.082 114.837 520.362 116.544C521.727 118.251 523.605 119.573 525.994 120.512C528.383 121.451 531.199 121.92 534.442 121.92C539.647 121.92 544.426 120.725 548.778 118.336C553.13 115.861 556.799 112.235 559.786 107.456C562.858 102.592 565.034 96.704 566.314 89.792L582.314 94.784C580.522 103.488 577.322 111.04 572.714 117.44C568.106 123.84 562.431 128.789 555.69 132.288C548.949 135.787 541.397 137.536 533.034 137.536ZM635.273 136V65.6C635.273 57.8347 637.577 51.648 642.185 47.04C646.793 42.3467 653.364 40 661.897 40C664.798 40 667.572 40.2987 670.217 40.896C672.948 41.4933 675.252 42.432 677.129 43.712L671.881 58.176C670.772 57.408 669.534 56.8107 668.169 56.384C666.804 55.9573 665.353 55.744 663.817 55.744C660.916 55.744 658.654 56.5973 657.033 58.304C655.497 59.9253 654.729 62.4 654.729 65.728V72.128L655.241 80.704V136H635.273ZM624.649 84.032V68.672H672.393V84.032H624.649ZM714.234 137.024C706.895 137.024 700.367 135.488 694.65 132.416C689.018 129.344 684.538 125.163 681.21 119.872C677.967 114.496 676.346 108.395 676.346 101.568C676.346 94.656 677.967 88.5547 681.21 83.264C684.538 77.888 689.018 73.7067 694.65 70.72C700.367 67.648 706.895 66.112 714.234 66.112C721.487 66.112 727.973 67.648 733.69 70.72C739.407 73.7067 743.887 77.8453 747.13 83.136C750.373 88.4267 751.994 94.5707 751.994 101.568C751.994 108.395 750.373 114.496 747.13 119.872C743.887 125.163 739.407 129.344 733.69 132.416C727.973 135.488 721.487 137.024 714.234 137.024ZM714.234 120.64C717.562 120.64 720.549 119.872 723.194 118.336C725.839 116.8 727.93 114.624 729.466 111.808C731.002 108.907 731.77 105.493 731.77 101.568C731.77 97.5573 731.002 94.144 729.466 91.328C727.93 88.512 725.839 86.336 723.194 84.8C720.549 83.264 717.562 82.496 714.234 82.496C710.906 82.496 707.919 83.264 705.274 84.8C702.629 86.336 700.495 88.512 698.874 91.328C697.338 94.144 696.57 97.5573 696.57 101.568C696.57 105.493 697.338 108.907 698.874 111.808C700.495 114.624 702.629 116.8 705.274 118.336C707.919 119.872 710.906 120.64 714.234 120.64ZM794.397 137.024C788.68 137.024 783.56 135.915 779.037 133.696C774.6 131.477 771.144 128.107 768.669 123.584C766.194 118.976 764.957 113.131 764.957 106.048V67.136H784.925V103.104C784.925 108.821 786.12 113.045 788.509 115.776C790.984 118.421 794.44 119.744 798.877 119.744C801.949 119.744 804.68 119.104 807.069 117.824C809.458 116.459 811.336 114.411 812.701 111.68C814.066 108.864 814.749 105.365 814.749 101.184V67.136H834.717V136H815.773V117.056L819.229 122.56C816.925 127.339 813.512 130.965 808.989 133.44C804.552 135.829 799.688 137.024 794.397 137.024ZM895.072 66.112C900.533 66.112 905.397 67.2213 909.664 69.44C914.016 71.5733 917.429 74.9013 919.904 79.424C922.379 83.8613 923.616 89.5787 923.616 96.576V136H903.648V99.648C903.648 94.1013 902.411 90.0053 899.936 87.36C897.547 84.7147 894.133 83.392 889.696 83.392C886.539 83.392 883.68 84.0747 881.12 85.44C878.645 86.72 876.683 88.7253 875.232 91.456C873.867 94.1867 873.184 97.6853 873.184 101.952V136H853.216V67.136H872.288V86.208L868.704 80.448C871.179 75.84 874.72 72.2987 879.328 69.824C883.936 67.3493 889.184 66.112 895.072 66.112ZM971.784 137.024C965.299 137.024 959.453 135.573 954.248 132.672C949.043 129.685 944.904 125.547 941.832 120.256C938.845 114.965 937.352 108.736 937.352 101.568C937.352 94.3147 938.845 88.0427 941.832 82.752C944.904 77.4613 949.043 73.3653 954.248 70.464C959.453 67.5627 965.299 66.112 971.784 66.112C977.587 66.112 982.664 67.392 987.016 69.952C991.368 72.512 994.739 76.3947 997.128 81.6C999.517 86.8053 1000.71 93.4613 1000.71 101.568C1000.71 109.589 999.56 116.245 997.256 121.536C994.952 126.741 991.624 130.624 987.272 133.184C983.005 135.744 977.843 137.024 971.784 137.024ZM975.24 120.64C978.483 120.64 981.427 119.872 984.072 118.336C986.717 116.8 988.808 114.624 990.344 111.808C991.965 108.907 992.776 105.493 992.776 101.568C992.776 97.5573 991.965 94.144 990.344 91.328C988.808 88.512 986.717 86.336 984.072 84.8C981.427 83.264 978.483 82.496 975.24 82.496C971.912 82.496 968.925 83.264 966.28 84.8C963.635 86.336 961.501 88.512 959.88 91.328C958.344 94.144 957.576 97.5573 957.576 101.568C957.576 105.493 958.344 108.907 959.88 111.808C961.501 114.624 963.635 116.8 966.28 118.336C968.925 119.872 971.912 120.64 975.24 120.64ZM993.288 136V121.92L993.672 101.44L992.392 81.088V41.024H1012.36V136H993.288Z" fill="black"/>
<rect x="23" y="28" width="134" height="123" fill="white"/>
<path fill-rule="evenodd" clip-rule="evenodd" d="M47.2506 3.49038C58.939 0.8928 73.1187 0 90 0C106.881 0 121.061 0.8928 132.749 3.49038C144.54 6.11073 154.339 10.584 161.878 18.1222C169.416 25.6604 173.889 35.4602 176.51 47.2506C179.107 58.939 180 73.1187 180 90C180 106.881 179.107 121.061 176.51 132.749C173.889 144.54 169.416 154.339 161.878 161.878C154.339 169.416 144.54 173.889 132.749 176.51C121.061 179.107 106.881 180 90 180C73.1187 180 58.939 179.107 47.2506 176.51C35.4602 173.889 25.6604 169.416 18.1222 161.878C10.584 154.339 6.11073 144.54 3.49038 132.749C0.8928 121.061 0 106.881 0 90C0 73.1187 0.8928 58.939 3.49038 47.2506C6.11073 35.4602 10.584 25.6604 18.1222 18.1222C25.6604 10.584 35.4602 6.11073 47.2506 3.49038ZM63 85.5C63 73.0737 73.0737 63 85.5 63C97.9263 63 108 73.0737 108 85.5C108 97.9263 97.9263 108 85.5 108C73.0737 108 63 97.9263 63 85.5ZM85.5 45C63.1325 45 45 63.1325 45 85.5C45 107.868 63.1325 126 85.5 126C93.4245 126 100.818 123.724 107.061 119.79L119.636 132.364C123.151 135.878 128.849 135.878 132.364 132.364C135.878 128.849 135.878 123.151 132.364 119.636L119.79 107.061C123.724 100.818 126 93.4245 126 85.5C126 63.1325 107.868 45 85.5 45Z" fill="#1366D9"/>
</svg>
