<svg width="18" height="18" viewBox="0 0 18 18" fill="none" xmlns="http://www.w3.org/2000/svg">
<path d="M12.8571 5.7143C12.8571 4.57766 12.4056 3.48757 11.6019 2.68385C10.7981 1.88012 9.70804 1.42859 8.57139 1.42859C7.43475 1.42859 6.34466 1.88012 5.54094 2.68385C4.73721 3.48757 4.28568 4.57766 4.28568 5.7143C4.28568 10.7143 2.14282 12.1429 2.14282 12.1429H15C15 12.1429 12.8571 10.7143 12.8571 5.7143Z" stroke="#757575" stroke-width="2" stroke-linecap="round" stroke-linejoin="round"/>
<path d="M9.80712 15C9.68154 15.2165 9.50129 15.3962 9.28443 15.5211C9.06756 15.646 8.82168 15.7118 8.57141 15.7118C8.32114 15.7118 8.07526 15.646 7.85839 15.5211C7.64152 15.3962 7.46127 15.2165 7.33569 15" stroke="#757575" stroke-width="2" stroke-linecap="round" stroke-linejoin="round"/>
</svg>
