<svg width="151" height="167" viewBox="0 0 151 167" fill="none" xmlns="http://www.w3.org/2000/svg">
<path d="M121.796 52.6667C121.796 40.4668 116.95 28.7665 108.323 20.1398C99.6964 11.5132 87.9961 6.66675 75.7961 6.66675C63.5962 6.66675 51.8959 11.5132 43.2692 20.1398C34.6426 28.7665 29.7961 40.4668 29.7961 52.6667C29.7961 106.333 6.79614 121.667 6.79614 121.667H144.796C144.796 121.667 121.796 106.333 121.796 52.6667Z" fill="#0057FF" stroke="#0057FF" stroke-width="12" stroke-linecap="round" stroke-linejoin="round"/>
<path d="M121.796 52.6667C121.796 40.4668 116.95 28.7665 108.323 20.1398C99.6964 11.5132 87.9961 6.66675 75.7961 6.66675C63.5962 6.66675 51.8959 11.5132 43.2692 20.1398C34.6426 28.7665 29.7961 40.4668 29.7961 52.6667C29.7961 106.333 6.79614 121.667 6.79614 121.667H144.796C144.796 121.667 121.796 106.333 121.796 52.6667Z" fill="#0057FF" stroke="#0057FF" stroke-width="12" stroke-linecap="round" stroke-linejoin="round"/>
<path d="M88.7961 152.667C87.475 155.1 85.5788 157.12 83.2973 158.524C81.0158 159.928 78.4291 160.667 75.7961 160.667C73.1632 160.667 70.5765 159.928 68.295 158.524C66.0135 157.12 64.1173 155.1 62.7961 152.667" fill="#0057FF"/>
<path d="M88.7961 152.667C87.475 155.1 85.5788 157.12 83.2973 158.524C81.0158 159.928 78.4291 160.667 75.7961 160.667C73.1632 160.667 70.5765 159.928 68.295 158.524C66.0135 157.12 64.1173 155.1 62.7961 152.667" stroke="#0057FF" stroke-width="12" stroke-linecap="round" stroke-linejoin="round"/>
</svg>
