<svg width="158" height="158" viewBox="0 0 158 158" fill="none" xmlns="http://www.w3.org/2000/svg">
<path d="M96.8891 7.26055L96.8894 7.26074L142.06 38.8997C146.293 41.8657 150.107 46.5662 152.863 51.8521C155.62 57.1379 157.296 62.9664 157.296 68.1666V121.396C157.296 141.14 141.286 157.167 121.565 157.167H37.0269C17.3075 157.167 1.29614 141.063 1.29614 121.317V67.146C1.29614 62.2954 2.81792 56.7579 5.32274 51.6649C7.82743 46.5722 11.2938 41.9673 15.1413 38.9629L15.1414 38.9628L54.4293 8.2669C66.0976 -0.78422 84.7566 -1.24945 96.8891 7.26055ZM79.2961 132.651C82.7881 132.651 85.6778 129.758 85.6778 126.263V102.711C85.6778 99.2161 82.7881 96.3224 79.2961 96.3224C75.8042 96.3224 72.9145 99.2161 72.9145 102.711V126.263C72.9145 129.758 75.8042 132.651 79.2961 132.651Z" fill="#8E8E93" stroke="#8E8E93"/>
</svg>
