<svg width="17" height="17" viewBox="0 0 17 17" fill="none" xmlns="http://www.w3.org/2000/svg">
<path d="M8.50002 15.5833C8.33474 15.5833 8.19308 15.5361 8.07502 15.4416C7.95696 15.3472 7.86842 15.2232 7.8094 15.0698C7.58509 14.4086 7.30176 13.7888 6.9594 13.2104C6.62884 12.6319 6.16252 11.9531 5.56044 11.1739C4.95835 10.3948 4.46842 9.651 4.09065 8.94267C3.72467 8.23433 3.54169 7.37843 3.54169 6.37496C3.54169 4.99371 4.01981 3.82496 4.97606 2.86871C5.94412 1.90065 7.11877 1.41663 8.50002 1.41663C9.88127 1.41663 11.05 1.90065 12.0063 2.86871C12.9743 3.82496 13.4584 4.99371 13.4584 6.37496C13.4584 7.44926 13.2518 8.34649 12.8386 9.06663C12.4372 9.77496 11.9709 10.4774 11.4396 11.1739C10.8021 12.0239 10.3181 12.7323 9.98752 13.2989C9.66877 13.8538 9.40315 14.4441 9.19065 15.0698C9.13162 15.235 9.03717 15.3649 8.90731 15.4593C8.78926 15.542 8.65349 15.5833 8.50002 15.5833ZM8.50002 13.051C8.70072 12.6496 8.92502 12.2541 9.17294 11.8645C9.43266 11.475 9.81044 10.9555 10.3063 10.3062C10.8139 9.6451 11.2271 9.03711 11.5459 8.48225C11.8764 7.91558 12.0417 7.21315 12.0417 6.37496C12.0417 5.3951 11.6934 4.56281 10.9969 3.87808C10.3122 3.18156 9.47988 2.83329 8.50002 2.83329C7.52016 2.83329 6.68197 3.18156 5.98544 3.87808C5.30072 4.56281 4.95835 5.3951 4.95835 6.37496C4.95835 7.21315 5.11773 7.91558 5.43648 8.48225C5.76703 9.03711 6.18613 9.6451 6.69377 10.3062C7.1896 10.9555 7.56148 11.475 7.8094 11.8645C8.06912 12.2541 8.29933 12.6496 8.50002 13.051ZM8.50002 8.14579C8.99585 8.14579 9.41495 7.97461 9.75731 7.63225C10.0997 7.28989 10.2709 6.87079 10.2709 6.37496C10.2709 5.87913 10.0997 5.46003 9.75731 5.11767C9.41495 4.77531 8.99585 4.60413 8.50002 4.60413C8.00419 4.60413 7.58509 4.77531 7.24273 5.11767C6.90037 5.46003 6.72919 5.87913 6.72919 6.37496C6.72919 6.87079 6.90037 7.28989 7.24273 7.63225C7.58509 7.97461 8.00419 8.14579 8.50002 8.14579Z" fill="#1D1B20"/>
</svg>
