<svg width="70" height="70" viewBox="0 0 70 70" fill="none" xmlns="http://www.w3.org/2000/svg">
<circle cx="34.8319" cy="34.8319" r="34.8319" fill="#ED2F2F"/>
<path d="M41.1101 35.0009L51.4941 45.3853C52.1686 46.0599 52.1686 47.1553 51.4941 47.8299L47.8301 51.4941C47.1555 52.1686 46.0619 52.1686 45.3857 51.4941L35 41.1096L24.6143 51.4941C23.9398 52.1686 22.8462 52.1686 22.1716 51.4941L18.5059 47.8299C17.8314 47.1553 17.8314 46.0616 18.5059 45.3853L28.8916 35.0009L18.5059 24.6147C17.8314 23.9401 17.8314 22.8447 18.5059 22.1701L22.1733 18.5059C22.8479 17.8314 23.9415 17.8314 24.616 18.5059L35 28.8921L45.3857 18.5059C46.0602 17.8314 47.1538 17.8314 47.8301 18.5059L51.4941 22.1719C52.1686 22.8464 52.1686 23.9401 51.4941 24.6164L41.1101 35.0009Z" fill="white"/>
</svg>
